<?xml version="1.0" encoding="iso-8859-1"?>
<!-- Uploaded to: SVG Repo, www.svgrepo.com, Generator: SVG Repo Mixer Tools -->
<!DOCTYPE svg PUBLIC "-//W3C//DTD SVG 1.1//EN" "http://www.w3.org/Graphics/SVG/1.1/DTD/svg11.dtd">
<svg fill="#62C555" version="1.1" id="Capa_1" xmlns="http://www.w3.org/2000/svg" xmlns:xlink="http://www.w3.org/1999/xlink" 
	 width="800px" height="800px" viewBox="0 0 37.145 37.146"
	 xml:space="preserve">
<g>
	<path d="M33.028,18.721v13.67c0,2.625-2.656,4.755-5.932,4.755H10.05c-3.274,0-5.932-2.13-5.932-4.755v-13.67
		c0-1.875,1.367-3.481,3.337-4.256V7.577C7.455,3.398,12.442,0,18.572,0c6.129,0,11.12,3.397,11.12,7.577v4.008h-5.934V7.577
		c0-1.529-2.375-2.822-5.188-2.822c-2.812,0-5.188,1.293-5.188,2.822v6.389h10.375l5.932,0.031
		C31.661,14.773,33.028,16.845,33.028,18.721z"/>
</g>
</svg>